<svg xmlns="http://www.w3.org/2000/svg" xmlns:xlink="http://www.w3.org/1999/xlink" width="35.273" height="35.28" viewBox="0 0 35.273 35.28"><defs><style>.a{fill:url(#a);}</style><linearGradient id="a" x1="0.5" x2="0.5" y2="1" gradientUnits="objectBoundingBox"><stop offset="0" stop-color="#feda75"/><stop offset="0.167" stop-color="#fb8c2b"/><stop offset="0.51" stop-color="#d62976"/><stop offset="0.757" stop-color="#962fbf"/><stop offset="1" stop-color="#4f5bd5"/></linearGradient></defs><path class="a" d="M35.632,10.372a12.891,12.891,0,0,0-.82-4.28A9.037,9.037,0,0,0,29.65.93,12.924,12.924,0,0,0,25.37.11C23.481.021,22.882,0,18.092,0S12.7.021,10.821.1a12.9,12.9,0,0,0-4.28.82,8.608,8.608,0,0,0-3.129,2.04A8.686,8.686,0,0,0,1.379,6.086a12.926,12.926,0,0,0-.82,4.28c-.09,1.889-.11,2.488-.11,7.278s.021,5.389.1,7.271a12.891,12.891,0,0,0,.82,4.28,9.036,9.036,0,0,0,5.162,5.162,12.926,12.926,0,0,0,4.28.82c1.881.083,2.481.1,7.271.1s5.389-.02,7.271-.1a12.888,12.888,0,0,0,4.28-.82A9.024,9.024,0,0,0,34.8,29.194a12.934,12.934,0,0,0,.82-4.28c.083-1.882.1-2.481.1-7.271s-.007-5.389-.09-7.271Zm-3.177,14.4a9.67,9.67,0,0,1-.607,3.274A5.852,5.852,0,0,1,28.5,31.4a9.7,9.7,0,0,1-3.274.606c-1.861.083-2.419.1-7.126.1s-5.272-.02-7.126-.1A9.665,9.665,0,0,1,7.7,31.4a5.429,5.429,0,0,1-2.026-1.316,5.485,5.485,0,0,1-1.316-2.026,9.706,9.706,0,0,1-.606-3.274c-.083-1.861-.1-2.419-.1-7.126s.02-5.272.1-7.126a9.665,9.665,0,0,1,.606-3.274A5.362,5.362,0,0,1,5.68,5.231,5.477,5.477,0,0,1,7.706,3.915a9.711,9.711,0,0,1,3.274-.607c1.861-.083,2.419-.1,7.126-.1s5.272.021,7.126.1a9.67,9.67,0,0,1,3.274.607,5.425,5.425,0,0,1,2.026,1.316,5.484,5.484,0,0,1,1.316,2.026,9.71,9.71,0,0,1,.607,3.274c.083,1.861.1,2.419.1,7.126s-.021,5.259-.1,7.119Zm0,0" transform="translate(-0.449 0)"/><path class="a" d="M134.012,124.5a9.063,9.063,0,1,0,9.063,9.063A9.065,9.065,0,0,0,134.012,124.5Zm0,14.942a5.879,5.879,0,1,1,5.879-5.879,5.88,5.88,0,0,1-5.879,5.879Zm0,0" transform="translate(-116.368 -115.92)"/><path class="a" d="M366.682,90.718a2.116,2.116,0,1,1-2.116-2.116A2.116,2.116,0,0,1,366.682,90.718Zm0,0" transform="translate(-337.501 -82.495)"/></svg>