<?xml version="1.0" encoding="utf-8"?>
<!-- Generator: Adobe Illustrator 24.2.3, SVG Export Plug-In . SVG Version: 6.00 Build 0)  -->
<svg version="1.1" id="Warstwa_1" xmlns="http://www.w3.org/2000/svg" xmlns:xlink="http://www.w3.org/1999/xlink" x="0px" y="0px"
	 viewBox="0 0 544.9 260.3" style="enable-background:new 0 0 544.9 260.3;" xml:space="preserve">
<style type="text/css">
	.st0{display:none;}
	.st1{display:inline;fill:none;stroke:#000000;stroke-miterlimit:10;}
	.st2{display:inline;fill:#FFFFFF;stroke:#000000;stroke-miterlimit:10;}
	.st3{fill:#FC4445;}
	.st4{fill:url(#SVGID_1_);}
	.st5{fill:url(#SVGID_2_);}
	.st6{fill:url(#SVGID_3_);}
	.st7{display:none;fill:url(#SVGID_4_);}
	.st8{fill:url(#SVGID_5_);}
	.st9{fill:url(#SVGID_6_);}
</style>
<g id="Warstwa_2_1_" class="st0">
	<rect x="1.7" y="13.8" class="st1" width="235.2" height="235.2"/>
	<circle class="st1" cx="207.4" cy="101.8" r="88.1"/>
	<rect x="307.8" y="13.8" class="st1" width="235.2" height="235.2"/>
	<rect x="119.3" y="101.2" class="st1" width="147" height="147"/>
	<rect x="278.6" y="101.9" class="st1" width="147" height="147"/>
	<circle class="st2" cx="352.1" cy="177" r="73.5"/>
	<circle class="st1" cx="1.9" cy="130.9" r="117.2"/>
</g>
<g id="Warstwa_3">
	<polygon class="st3" points="266.3,258.1 95.2,258.1 242.1,111.2 119.3,111.2 119.3,91.2 290.4,91.2 143.5,238.1 266.3,238.1 	"/>
	<path class="st3" d="M353.9,258.3c-43.1,0-63.6-23.3-73.3-42.8c-10.1-20.5-10.2-40.8-10.2-41.6v-62.7l20-20v82.7
		c0,2.6,1.1,64.4,63.5,64.4s63.5-61.8,63.5-64.5V10.1h20v163.8c0,0.9-0.1,21.2-10.2,41.6C417.6,235,397,258.3,353.9,258.3z"/>
	<rect x="232.1" y="3.8" class="st3" width="310.9" height="20"/>
	
		<linearGradient id="SVGID_1_" gradientUnits="userSpaceOnUse" x1="128.7" y1="633.2013" x2="179.9" y2="633.2013" gradientTransform="matrix(1 0 0 1 0 -532.0013)">
		<stop  offset="0" style="stop-color:#9C292E"/>
		<stop  offset="2.195466e-02" style="stop-color:#A62C30"/>
		<stop  offset="9.211856e-02" style="stop-color:#C13337"/>
		<stop  offset="0.1727" style="stop-color:#D7393C"/>
		<stop  offset="0.2668" style="stop-color:#E83E40"/>
		<stop  offset="0.3832" style="stop-color:#F34243"/>
		<stop  offset="0.5466" style="stop-color:#FA4345"/>
		<stop  offset="1" style="stop-color:#FC4445"/>
	</linearGradient>
	<rect x="128.7" y="91.2" class="st4" width="51.2" height="20"/>
	
		<linearGradient id="SVGID_2_" gradientUnits="userSpaceOnUse" x1="271.6572" y1="642.3085" x2="299.6825" y2="670.3338" gradientTransform="matrix(1 0 0 1 0 -532.0013)">
		<stop  offset="0" style="stop-color:#9C292E"/>
		<stop  offset="2.195466e-02" style="stop-color:#A62C30"/>
		<stop  offset="9.211856e-02" style="stop-color:#C13337"/>
		<stop  offset="0.1727" style="stop-color:#D7393C"/>
		<stop  offset="0.2668" style="stop-color:#E83E40"/>
		<stop  offset="0.3832" style="stop-color:#F34243"/>
		<stop  offset="0.5466" style="stop-color:#FA4345"/>
		<stop  offset="1" style="stop-color:#FC4445"/>
	</linearGradient>
	<polygon class="st5" points="270.5,111.1 290.4,91.2 290.4,147 270.5,147 	"/>
	
		<linearGradient id="SVGID_3_" gradientUnits="userSpaceOnUse" x1="427.4" y1="556.2957" x2="427.4" y2="594.1681" gradientTransform="matrix(1 0 0 1 0 -532.0013)">
		<stop  offset="0" style="stop-color:#9C292E"/>
		<stop  offset="2.195466e-02" style="stop-color:#A62C30"/>
		<stop  offset="9.211856e-02" style="stop-color:#C13337"/>
		<stop  offset="0.1727" style="stop-color:#D7393C"/>
		<stop  offset="0.2668" style="stop-color:#E83E40"/>
		<stop  offset="0.3832" style="stop-color:#F34243"/>
		<stop  offset="0.5466" style="stop-color:#FA4345"/>
		<stop  offset="1" style="stop-color:#FC4445"/>
	</linearGradient>
	<rect x="417.4" y="23.8" class="st6" width="20" height="37.7"/>
	
		<linearGradient id="SVGID_4_" gradientUnits="userSpaceOnUse" x1="236.9" y1="545.8013" x2="291.5087" y2="545.8013" gradientTransform="matrix(1 0 0 1 0 -532.0013)">
		<stop  offset="0" style="stop-color:#9C292E"/>
		<stop  offset="3.509926e-02" style="stop-color:#AB2D32"/>
		<stop  offset="0.1154" style="stop-color:#C83539"/>
		<stop  offset="0.2015" style="stop-color:#DE3B3E"/>
		<stop  offset="0.2949" style="stop-color:#EE4042"/>
		<stop  offset="0.4011" style="stop-color:#F74244"/>
		<stop  offset="0.5477" style="stop-color:#FA4345"/>
		<stop  offset="0.5536" style="stop-color:#FA4345"/>
		<stop  offset="1" style="stop-color:#FC4445"/>
	</linearGradient>
	<rect x="236.9" y="3.8" class="st7" width="58.1" height="20"/>
	<path class="st3" d="M1.9,258.1v-20c43.6,0,74.8-17.7,92.7-52.5c13.8-26.9,14.4-54.5,14.5-54.8l0.2-29.7c0-50.2,27-74.1,49.6-85.4
		c23.8-11.8,47.5-12,48.5-12h29.5v20h-29.5c-3.2,0-78.1,1.3-78.1,77.4l-0.2,29.9c0,1.3-0.6,32-16.3,63
		C97.9,223.3,66.7,258.1,1.9,258.1z"/>
	
		<linearGradient id="SVGID_5_" gradientUnits="userSpaceOnUse" x1="234.7895" y1="649.7407" x2="206.2835" y2="621.2348" gradientTransform="matrix(1 0 0 1 0 -532.0013)">
		<stop  offset="0" style="stop-color:#9C292E"/>
		<stop  offset="3.509926e-02" style="stop-color:#AB2D32"/>
		<stop  offset="0.1154" style="stop-color:#C83539"/>
		<stop  offset="0.2015" style="stop-color:#DE3B3E"/>
		<stop  offset="0.2949" style="stop-color:#EE4042"/>
		<stop  offset="0.4011" style="stop-color:#F74244"/>
		<stop  offset="0.5477" style="stop-color:#FA4345"/>
		<stop  offset="0.5536" style="stop-color:#FA4345"/>
		<stop  offset="1" style="stop-color:#FC4445"/>
	</linearGradient>
	<polygon class="st8" points="242.1,111.2 262.1,91.2 194.6,91.2 174.5,111.3 	"/>
	
		<linearGradient id="SVGID_6_" gradientUnits="userSpaceOnUse" x1="154.3664" y1="760.3677" x2="197.1085" y2="803.1099" gradientTransform="matrix(1 0 0 1 0 -532.0013)">
		<stop  offset="0" style="stop-color:#9C292E"/>
		<stop  offset="3.509926e-02" style="stop-color:#AB2D32"/>
		<stop  offset="0.1154" style="stop-color:#C83539"/>
		<stop  offset="0.2015" style="stop-color:#DE3B3E"/>
		<stop  offset="0.2949" style="stop-color:#EE4042"/>
		<stop  offset="0.4011" style="stop-color:#F74244"/>
		<stop  offset="0.5477" style="stop-color:#FA4345"/>
		<stop  offset="0.5536" style="stop-color:#FA4345"/>
		<stop  offset="1" style="stop-color:#FC4445"/>
	</linearGradient>
	<polygon class="st9" points="143.5,238.1 123.5,258.1 224.7,258.1 224.7,238.1 	"/>
</g>
<g id="Warstwa_4">
</g>
</svg>
