<svg xmlns="http://www.w3.org/2000/svg" width="35.146" height="35.315" viewBox="0 0 35.146 35.315"><defs><style>.a{fill:#25d366;fill-rule:evenodd;}</style></defs><path class="a" d="M30.275,5.132A17.5,17.5,0,0,0,2.732,26.247L.25,35.315l9.277-2.433a17.481,17.481,0,0,0,8.362,2.13H17.9A17.507,17.507,0,0,0,30.275,5.132ZM17.9,32.056H17.89a14.527,14.527,0,0,1-7.4-2.027l-.531-.315-5.5,1.444L5.921,25.79l-.346-.55A14.545,14.545,0,1,1,17.9,32.056Zm7.978-10.893c-.437-.219-2.587-1.276-2.988-1.423s-.692-.219-.984.219-1.129,1.423-1.385,1.714-.51.328-.947.109a11.943,11.943,0,0,1-3.516-2.17,13.189,13.189,0,0,1-2.432-3.029c-.255-.438,0-.652.192-.892a12.369,12.369,0,0,0,1.093-1.5.8.8,0,0,0-.037-.766c-.109-.219-.984-2.371-1.348-3.247-.355-.852-.715-.737-.984-.751s-.546-.015-.838-.015a1.606,1.606,0,0,0-1.166.547A4.9,4.9,0,0,0,9,13.612a8.506,8.506,0,0,0,1.785,4.523c.219.292,3.083,4.708,7.469,6.6a25.027,25.027,0,0,0,2.493.921,5.994,5.994,0,0,0,2.754.173,4.5,4.5,0,0,0,2.951-2.079,3.653,3.653,0,0,0,.255-2.079c-.109-.182-.4-.292-.838-.511Zm0,0" transform="translate(-0.25)"/></svg>